<svg viewBox="0 0 400 250" xmlns="http://www.w3.org/2000/svg">
  <rect width="400" height="250" fill="#F7FAFC"/>
  <rect x="0" y="0" width="400" height="6" fill="#10B981"/>
  <!-- 7 tiles spelling A N A G R A M, matching the live app's home-title tile grid -->
  <g font-family="'Space Mono', monospace" font-size="26" font-weight="700" fill="#16202A" text-anchor="middle">
    <g transform="translate(50,125)">
      <rect x="-21" y="-21" width="42" height="42" rx="7" fill="#FFFFFF" stroke="rgba(22,32,42,0.12)"/>
      <rect x="-21" y="16" width="42" height="4" rx="2" fill="rgba(22,32,42,0.1)"/>
      <text y="9">A</text>
    </g>
    <g transform="translate(100,125)">
      <rect x="-21" y="-21" width="42" height="42" rx="7" fill="#FFFFFF" stroke="rgba(22,32,42,0.12)"/>
      <rect x="-21" y="16" width="42" height="4" rx="2" fill="rgba(22,32,42,0.1)"/>
      <text y="9">N</text>
    </g>
    <g transform="translate(150,125)">
      <rect x="-21" y="-21" width="42" height="42" rx="7" fill="#FFFFFF" stroke="rgba(22,32,42,0.12)"/>
      <rect x="-21" y="16" width="42" height="4" rx="2" fill="rgba(22,32,42,0.1)"/>
      <text y="9">A</text>
    </g>
    <g transform="translate(200,125)">
      <rect x="-21" y="-21" width="42" height="42" rx="7" fill="#FFFFFF" stroke="rgba(22,32,42,0.12)"/>
      <rect x="-21" y="16" width="42" height="4" rx="2" fill="rgba(22,32,42,0.1)"/>
      <text y="9">G</text>
    </g>
    <g transform="translate(250,125)">
      <rect x="-21" y="-21" width="42" height="42" rx="7" fill="#FFFFFF" stroke="rgba(22,32,42,0.12)"/>
      <rect x="-21" y="16" width="42" height="4" rx="2" fill="rgba(22,32,42,0.1)"/>
      <text y="9">R</text>
    </g>
    <g transform="translate(300,125)">
      <rect x="-21" y="-21" width="42" height="42" rx="7" fill="#FFFFFF" stroke="rgba(22,32,42,0.12)"/>
      <rect x="-21" y="16" width="42" height="4" rx="2" fill="rgba(22,32,42,0.1)"/>
      <text y="9">A</text>
    </g>
    <g transform="translate(350,125)">
      <rect x="-21" y="-21" width="42" height="42" rx="7" fill="#FFFFFF" stroke="rgba(22,32,42,0.12)"/>
      <rect x="-21" y="16" width="42" height="4" rx="2" fill="rgba(22,32,42,0.1)"/>
      <text y="9">M</text>
    </g>
  </g>
  <text x="200" y="215" font-family="Arial, sans-serif" font-size="16" font-weight="700" letter-spacing="3" fill="#16202A" text-anchor="middle" opacity="0.55">UNSCRAMBLE THE WORD</text>
</svg>
