<svg viewBox="0 0 400 250" xmlns="http://www.w3.org/2000/svg">
  <defs>
    <linearGradient id="field" x1="0" y1="0" x2="1" y2="1">
      <stop offset="0%" stop-color="#041226"/>
      <stop offset="56%" stop-color="#0b2447"/>
      <stop offset="100%" stop-color="#12386a"/>
    </linearGradient>
    <radialGradient id="spotlight" cx="50%" cy="34%" r="62%">
      <stop offset="0%" stop-color="#f5f8ff" stop-opacity="0.22"/>
      <stop offset="100%" stop-color="#f5f8ff" stop-opacity="0"/>
    </radialGradient>
  </defs>
  <rect width="400" height="250" fill="url(#field)"/>
  <rect width="400" height="250" fill="url(#spotlight)"/>
  <path d="M0 190 C70 158 129 158 200 190 C271 158 330 158 400 190 L400 250 L0 250 Z" fill="#bf0d3e" opacity="0.95"/>
  <path d="M0 205 C72 173 128 173 200 205 C272 173 328 173 400 205" fill="none" stroke="#f5f8ff" stroke-width="5" opacity="0.9"/>
  <circle cx="200" cy="92" r="42" fill="#f5f8ff"/>
  <path d="M181 62 C195 82 195 102 181 122" fill="none" stroke="#bf0d3e" stroke-width="5" stroke-linecap="round"/>
  <path d="M219 62 C205 82 205 102 219 122" fill="none" stroke="#bf0d3e" stroke-width="5" stroke-linecap="round"/>
  <g stroke="#bf0d3e" stroke-width="3" stroke-linecap="round">
    <path d="M187 72 L179 78"/>
    <path d="M190 84 L181 90"/>
    <path d="M190 100 L181 106"/>
    <path d="M187 112 L179 118"/>
    <path d="M213 72 L221 78"/>
    <path d="M210 84 L219 90"/>
    <path d="M210 100 L219 106"/>
    <path d="M213 112 L221 118"/>
  </g>
  <text x="200" y="170" font-family="Arial, sans-serif" font-size="48" font-weight="900" fill="#f5f8ff" text-anchor="middle" letter-spacing="4">DINGER</text>
  <text x="200" y="218" font-family="Arial, sans-serif" font-size="15" font-weight="800" fill="#d8e8ff" text-anchor="middle" letter-spacing="3">DAILY MLB PLAYER GAME</text>
</svg>
